<?xml version="1.0" encoding="utf-8"?>
<!-- Generator: Adobe Illustrator 20.1.0, SVG Export Plug-In . SVG Version: 6.00 Build 0)  -->
<svg version="1.1" id="Layer_1" xmlns="http://www.w3.org/2000/svg" xmlns:xlink="http://www.w3.org/1999/xlink" x="0px" y="0px"
	 viewBox="0 0 110 110" style="enable-background:new 0 0 110 110;" xml:space="preserve">
<style type="text/css">
	.st0{fill:url(#SVGID_1_);}
	.st1{fill:url(#SVGID_2_);}
	.st2{fill:url(#SVGID_3_);}
	.st3{fill:url(#SVGID_4_);}
	.st4{fill:url(#SVGID_5_);}
	.st5{fill:url(#SVGID_6_);}
	.st6{fill:url(#SVGID_7_);}
</style>
<g transform="translate(1 1)">
	<linearGradient id="SVGID_1_" gradientUnits="userSpaceOnUse" x1="53.7754" y1="94.75" x2="53.7754" y2="12.1531">
		<stop  offset="0" style="stop-color:#7B2414"/>
		<stop  offset="0.997" style="stop-color:#C92414"/>
	</linearGradient>
	<path class="st0" d="M41.5,77.2c-0.3,0-0.5,0-0.7-0.1c-0.5-0.4-0.8-1.1-0.5-1.6l8.3-20h-7.1c-0.5,0-1-0.3-1.2-0.7
		c-0.3-0.4-0.3-1,0-1.4l12.3-21.8c0.3-0.4,0.7-0.7,1.2-0.7h10.9c0.5,0,1,0.3,1.2,0.7s0.3,1,0,1.4l-8.2,12.9h8.3c0.5,0,1,0.3,1.2,0.8
		s0.1,1.1-0.1,1.5L42.6,76.7C42.4,77,42,77.2,41.5,77.2z M43.9,52.6h6.7c0.4,0,0.8,0.3,1.1,0.5c0.3,0.4,0.3,0.8,0.1,1.2L46,68.3
		l17-19.7h-7.9c-0.5,0-1-0.3-1.2-0.7c-0.3-0.4-0.3-1,0-1.4l8.2-12.9h-7.6L43.9,52.6z"/>
	<linearGradient id="SVGID_2_" gradientUnits="userSpaceOnUse" x1="53.8033" y1="94.75" x2="53.8033" y2="12.1531">
		<stop  offset="0" style="stop-color:#7B2414"/>
		<stop  offset="0.997" style="stop-color:#C92414"/>
	</linearGradient>
	<path class="st1" d="M86.5,94.9H21.1c-4.5,0-8.2-3.7-8.2-8.2V21.3c0-4.5,3.7-8.2,8.2-8.2h65.4c4.5,0,8.2,3.7,8.2,8.2v65.4
		C94.7,91.2,91,94.9,86.5,94.9z M21.1,15.9c-3,0-5.4,2.5-5.4,5.4v65.4c0,3,2.5,5.4,5.4,5.4h65.4c3,0,5.4-2.5,5.4-5.4V21.3
		c0-3-2.5-5.4-5.4-5.4H21.1z"/>
	<linearGradient id="SVGID_3_" gradientUnits="userSpaceOnUse" x1="53.8033" y1="94.75" x2="53.8033" y2="12.1531">
		<stop  offset="0" style="stop-color:#7B2414"/>
		<stop  offset="0.997" style="stop-color:#C92414"/>
	</linearGradient>
	<path class="st2" d="M53.8,86.7c-18,0-32.7-14.7-32.7-32.7s14.7-32.7,32.7-32.7S86.5,36,86.5,54S71.8,86.7,53.8,86.7z M53.8,24
		c-16.5,0-30,13.5-30,30s13.5,30,30,30s30-13.5,30-30S70.3,24,53.8,24z"/>
	<linearGradient id="SVGID_4_" gradientUnits="userSpaceOnUse" x1="21.1163" y1="94.75" x2="21.1163" y2="12.1531">
		<stop  offset="0" style="stop-color:#7B2414"/>
		<stop  offset="0.997" style="stop-color:#C92414"/>
	</linearGradient>
	<path class="st3" d="M23.8,21.3c0-1.5-1.2-2.7-2.7-2.7c-1.5,0-2.7,1.2-2.7,2.7c0,1.5,1.2,2.7,2.7,2.7C22.6,24,23.8,22.8,23.8,21.3"
		/>
	<linearGradient id="SVGID_5_" gradientUnits="userSpaceOnUse" x1="21.1163" y1="94.75" x2="21.1163" y2="12.1531">
		<stop  offset="0" style="stop-color:#7B2414"/>
		<stop  offset="0.997" style="stop-color:#C92414"/>
	</linearGradient>
	<path class="st4" d="M23.8,86.7c0-1.5-1.2-2.7-2.7-2.7c-1.5,0-2.7,1.2-2.7,2.7c0,1.5,1.2,2.7,2.7,2.7
		C22.6,89.4,23.8,88.2,23.8,86.7"/>
	<linearGradient id="SVGID_6_" gradientUnits="userSpaceOnUse" x1="86.4902" y1="94.75" x2="86.4902" y2="12.1531">
		<stop  offset="0" style="stop-color:#7B2414"/>
		<stop  offset="0.997" style="stop-color:#C92414"/>
	</linearGradient>
	<path class="st5" d="M89.2,21.3c0-1.5-1.2-2.7-2.7-2.7c-1.5,0-2.7,1.2-2.7,2.7c0,1.5,1.2,2.7,2.7,2.7C88,24,89.2,22.8,89.2,21.3"/>
	<linearGradient id="SVGID_7_" gradientUnits="userSpaceOnUse" x1="86.4902" y1="94.75" x2="86.4902" y2="12.1531">
		<stop  offset="0" style="stop-color:#7B2414"/>
		<stop  offset="0.997" style="stop-color:#C92414"/>
	</linearGradient>
	<path class="st6" d="M89.2,86.7c0-1.5-1.2-2.7-2.7-2.7c-1.5,0-2.7,1.2-2.7,2.7c0,1.5,1.2,2.7,2.7,2.7C88,89.4,89.2,88.2,89.2,86.7"
		/>
</g>
</svg>
